<?xml version="1.0" encoding="UTF-8" standalone="no"?><!DOCTYPE svg PUBLIC "-//W3C//DTD SVG 1.1//EN" "http://www.w3.org/Graphics/SVG/1.1/DTD/svg11.dtd"><svg width="100%" height="100%" viewBox="0 0 840 1500" version="1.1" xmlns="http://www.w3.org/2000/svg" xmlns:xlink="http://www.w3.org/1999/xlink" xml:space="preserve" xmlns:serif="http://www.serif.com/" style="fill-rule:evenodd;clip-rule:evenodd;stroke-miterlimit:10;"><path id="_125B" serif:id="125B" d="M810.079,1450.7c0,10.66 -8.801,19.304 -19.665,19.304l-740.671,0c-10.868,0 -19.664,-8.644 -19.664,-19.304l0,-1401.38c0,-10.665 8.796,-19.313 19.664,-19.313l740.671,-0c10.864,-0 19.665,8.648 19.665,19.313l0,1401.38Z" style="fill:#bfbfbf;fill-rule:nonzero;stroke:#231f20;stroke-width:25px;"/><g><circle cx="235.854" cy="1294.99" r="90" style="fill:#fff;stroke:#000;stroke-width:8.33px;stroke-linecap:round;stroke-linejoin:round;"/><circle cx="235.854" cy="1294.99" r="56.25" style="fill:#fff;stroke:#000;stroke-width:12.5px;stroke-linecap:round;stroke-linejoin:round;"/></g><g><circle cx="604.298" cy="1294.99" r="90" style="fill:#fff;stroke:#000;stroke-width:8.33px;stroke-linecap:round;stroke-linejoin:round;"/><circle cx="604.298" cy="1294.99" r="56.25" style="fill:#fff;stroke:#000;stroke-width:12.5px;stroke-linecap:round;stroke-linejoin:round;"/></g><g><circle cx="174.446" cy="596.483" r="90" style="fill:#fff;stroke:#000;stroke-width:12.5px;stroke-linecap:round;stroke-linejoin:round;"/><path d="M174.446,581.483l0,-75" style="fill:none;stroke:#000;stroke-width:8.33px;stroke-linecap:round;stroke-linejoin:round;stroke-miterlimit:1.5;"/></g><g><circle cx="420.076" cy="289.446" r="90" style="fill:#fff;stroke:#000;stroke-width:12.5px;stroke-linecap:round;stroke-linejoin:round;"/><path d="M420.076,274.446l-0,-75" style="fill:none;stroke:#000;stroke-width:8.33px;stroke-linecap:round;stroke-linejoin:round;stroke-miterlimit:1.5;"/></g><g><circle cx="420.076" cy="596.483" r="90" style="fill:#fff;stroke:#000;stroke-width:12.5px;stroke-linecap:round;stroke-linejoin:round;"/><path d="M420.076,581.483l-0,-75" style="fill:none;stroke:#000;stroke-width:8.33px;stroke-linecap:round;stroke-linejoin:round;stroke-miterlimit:1.5;"/></g><g><circle cx="665.705" cy="596.483" r="90" style="fill:#fff;stroke:#000;stroke-width:12.5px;stroke-linecap:round;stroke-linejoin:round;"/><path d="M665.705,581.483l-0,-75" style="fill:none;stroke:#000;stroke-width:8.33px;stroke-linecap:round;stroke-linejoin:round;stroke-miterlimit:1.5;"/></g><g><circle cx="174.446" cy="289.446" r="90" style="fill:#fff;stroke:#000;stroke-width:12.5px;stroke-linecap:round;stroke-linejoin:round;"/><path d="M174.446,274.446l0,-75" style="fill:none;stroke:#000;stroke-width:8.33px;stroke-linecap:round;stroke-linejoin:round;stroke-miterlimit:1.5;"/></g><g><circle cx="665.705" cy="289.446" r="90" style="fill:#fff;stroke:#000;stroke-width:12.5px;stroke-linecap:round;stroke-linejoin:round;"/><path d="M665.705,274.446l-0,-75" style="fill:none;stroke:#000;stroke-width:8.33px;stroke-linecap:round;stroke-linejoin:round;stroke-miterlimit:1.5;"/></g><circle cx="235.854" cy="1080.07" r="26.374" style="fill:#fff;stroke:#000;stroke-width:8.33px;stroke-linecap:round;stroke-linejoin:round;"/><circle cx="604.298" cy="1080.07" r="26.374" style="fill:#fff;stroke:#000;stroke-width:8.33px;stroke-linecap:round;stroke-linejoin:round;"/><g><circle cx="335.641" cy="903.519" r="48" style="fill:#fff;stroke:#000;stroke-width:8.33px;stroke-linecap:round;stroke-linejoin:round;"/><path d="M356.85,834.688c-1.263,22.097 -2.526,44.194 -3.788,66.29c-0.503,8.807 -8.448,16.122 -17.421,16.122c-8.974,-0 -16.918,-7.315 -17.422,-16.122c-1.262,-22.096 -2.525,-44.193 -3.788,-66.29c-0.716,-12.543 9.543,-22.588 21.21,-22.588c11.666,-0 21.926,10.045 21.209,22.588Z" style="fill:#fff;stroke:#000;stroke-width:8.33px;stroke-linecap:round;stroke-linejoin:round;stroke-miterlimit:1.5;"/></g><g><circle cx="166.77" cy="903.519" r="48" style="fill:#fff;stroke:#000;stroke-width:8.33px;stroke-linecap:round;stroke-linejoin:round;"/><path d="M187.98,834.688c-1.263,22.097 -2.526,44.194 -3.788,66.29c-0.504,8.807 -8.448,16.122 -17.422,16.122c-8.973,-0 -16.918,-7.315 -17.421,-16.122c-1.263,-22.096 -2.525,-44.193 -3.788,-66.29c-0.717,-12.543 9.543,-22.588 21.209,-22.588c11.667,-0 21.926,10.045 21.21,22.588Z" style="fill:#fff;stroke:#000;stroke-width:8.33px;stroke-linecap:round;stroke-linejoin:round;stroke-miterlimit:1.5;"/></g><g><circle cx="504.511" cy="903.519" r="48" style="fill:#fff;stroke:#000;stroke-width:8.33px;stroke-linecap:round;stroke-linejoin:round;"/><path d="M525.72,834.688c-1.263,22.097 -2.525,44.194 -3.788,66.29c-0.503,8.807 -8.448,16.122 -17.421,16.122c-8.974,-0 -16.918,-7.315 -17.422,-16.122c-1.262,-22.096 -2.525,-44.193 -3.788,-66.29c-0.716,-12.543 9.543,-22.588 21.21,-22.588c11.666,-0 21.926,10.045 21.209,22.588Z" style="fill:#fff;stroke:#000;stroke-width:8.33px;stroke-linecap:round;stroke-linejoin:round;stroke-miterlimit:1.5;"/></g><g><circle cx="673.381" cy="903.519" r="48" style="fill:#fff;stroke:#000;stroke-width:8.33px;stroke-linecap:round;stroke-linejoin:round;"/><path d="M694.59,834.688c-1.263,22.097 -2.525,44.194 -3.788,66.29c-0.503,8.807 -8.448,16.122 -17.421,16.122c-8.973,-0 -16.918,-7.315 -17.421,-16.122c-1.263,-22.096 -2.526,-44.193 -3.788,-66.29c-0.717,-12.543 9.542,-22.588 21.209,-22.588c11.666,-0 21.926,10.045 21.209,22.588Z" style="fill:#fff;stroke:#000;stroke-width:8.33px;stroke-linecap:round;stroke-linejoin:round;stroke-miterlimit:1.5;"/></g><path d="M145.296,424.871l0,-20.625l5.134,-0c1.772,-0 3.261,0.252 4.468,0.756c1.207,0.504 2.177,1.23 2.911,2.177c0.733,0.948 1.26,2.086 1.581,3.415c0.321,1.329 0.481,2.819 0.481,4.469c0,1.802 -0.229,3.33 -0.687,4.583c-0.459,1.253 -1.07,2.269 -1.834,3.048c-0.763,0.779 -1.634,1.337 -2.612,1.673c-0.978,0.336 -1.986,0.504 -3.025,0.504l-6.417,-0Zm-7.196,-26.675l0,32.725l14.117,-0c2.506,-0 4.683,-0.42 6.531,-1.26c1.849,-0.841 3.392,-1.994 4.63,-3.461c1.237,-1.467 2.161,-3.208 2.772,-5.225c0.612,-2.017 0.917,-4.217 0.917,-6.6c0,-2.719 -0.374,-5.087 -1.123,-7.104c-0.748,-2.017 -1.787,-3.697 -3.116,-5.042c-1.33,-1.344 -2.903,-2.352 -4.721,-3.025c-1.818,-0.672 -3.782,-1.008 -5.89,-1.008l-14.117,-0Z" style="fill-rule:nonzero;"/><path d="M171.375,407.225l0,23.696l6.509,-0l-0,-10.679c-0,-1.07 0.107,-2.063 0.321,-2.979c0.214,-0.917 0.573,-1.719 1.077,-2.407c0.504,-0.687 1.168,-1.229 1.993,-1.627c0.825,-0.397 1.834,-0.596 3.025,-0.596c0.398,0 0.81,0.023 1.238,0.069c0.428,0.046 0.794,0.1 1.1,0.161l-0,-6.05c-0.519,-0.153 -0.993,-0.23 -1.421,-0.23c-0.825,0 -1.619,0.123 -2.383,0.367c-0.764,0.245 -1.482,0.588 -2.154,1.031c-0.673,0.443 -1.268,0.978 -1.788,1.605c-0.519,0.626 -0.932,1.306 -1.237,2.039l-0.092,0l-0,-4.4l-6.188,0Z" style="fill-rule:nonzero;"/><path d="M200.892,433.854l9.9,-26.629l-6.737,0l-5.18,16.225l-0.091,0l-5.363,-16.225l-6.921,0l8.296,22.229c0.184,0.459 0.275,0.948 0.275,1.467c0,0.703 -0.206,1.344 -0.618,1.925c-0.413,0.581 -1.047,0.917 -1.903,1.008c-0.641,0.031 -1.283,0.016 -1.925,-0.046c-0.641,-0.061 -1.268,-0.122 -1.879,-0.183l0,5.363c0.673,0.061 1.337,0.114 1.994,0.16c0.657,0.046 1.322,0.069 1.994,0.069c2.23,-0 3.972,-0.413 5.225,-1.238c1.253,-0.825 2.23,-2.2 2.933,-4.125Z" style="fill-rule:nonzero;"/><path d="M148.046,738.737l8.8,-32.725l-7.058,-0l-5.363,22.55l-0.091,-0l-5.592,-22.55l-6.737,-0l-5.684,22.275l-0.091,-0l-5.18,-22.275l-7.195,-0l8.662,32.725l7.288,-0l5.454,-22.275l0.091,-0l5.546,22.275l7.15,-0Z" style="fill-rule:nonzero;"/><path d="M157.488,722.329c0.092,-1.528 0.474,-2.796 1.146,-3.805c0.672,-1.008 1.528,-1.818 2.566,-2.429c1.039,-0.611 2.208,-1.046 3.507,-1.306c1.298,-0.26 2.605,-0.39 3.918,-0.39c1.192,0 2.399,0.084 3.621,0.252c1.223,0.168 2.338,0.497 3.346,0.986c1.008,0.489 1.833,1.169 2.475,2.039c0.642,0.871 0.963,2.025 0.963,3.461l-0,12.329c-0,1.069 0.061,2.093 0.183,3.071c0.122,0.978 0.336,1.711 0.642,2.2l-6.6,-0c-0.123,-0.367 -0.222,-0.741 -0.298,-1.123c-0.077,-0.382 -0.13,-0.772 -0.161,-1.169c-1.039,1.07 -2.261,1.818 -3.666,2.246c-1.406,0.428 -2.842,0.642 -4.309,0.642c-1.13,-0 -2.184,-0.138 -3.162,-0.413c-0.978,-0.275 -1.834,-0.703 -2.567,-1.283c-0.733,-0.581 -1.306,-1.314 -1.719,-2.2c-0.412,-0.886 -0.618,-1.94 -0.618,-3.163c-0,-1.344 0.236,-2.452 0.71,-3.323c0.474,-0.87 1.085,-1.566 1.833,-2.085c0.749,-0.519 1.605,-0.909 2.567,-1.169c0.963,-0.259 1.933,-0.466 2.91,-0.618c0.978,-0.153 1.941,-0.275 2.888,-0.367c0.947,-0.092 1.787,-0.229 2.521,-0.413c0.733,-0.183 1.314,-0.45 1.741,-0.802c0.428,-0.351 0.627,-0.863 0.596,-1.535c0,-0.703 -0.114,-1.261 -0.343,-1.673c-0.23,-0.413 -0.535,-0.733 -0.917,-0.963c-0.382,-0.229 -0.825,-0.382 -1.329,-0.458c-0.504,-0.076 -1.047,-0.114 -1.627,-0.114c-1.284,-0 -2.292,0.275 -3.025,0.825c-0.734,0.55 -1.161,1.466 -1.284,2.75l-6.508,-0Zm15.033,4.812c-0.275,0.244 -0.618,0.435 -1.031,0.573c-0.412,0.137 -0.856,0.252 -1.329,0.344c-0.474,0.091 -0.97,0.168 -1.49,0.229c-0.519,0.061 -1.039,0.137 -1.558,0.229c-0.489,0.092 -0.97,0.214 -1.444,0.367c-0.473,0.152 -0.886,0.359 -1.237,0.618c-0.352,0.26 -0.634,0.589 -0.848,0.986c-0.214,0.397 -0.321,0.901 -0.321,1.512c-0,0.581 0.107,1.07 0.321,1.467c0.214,0.397 0.504,0.71 0.871,0.94c0.366,0.229 0.794,0.389 1.283,0.481c0.489,0.092 0.993,0.137 1.512,0.137c1.284,0 2.277,-0.214 2.98,-0.641c0.702,-0.428 1.222,-0.94 1.558,-1.536c0.336,-0.596 0.542,-1.199 0.619,-1.81c0.076,-0.611 0.114,-1.1 0.114,-1.467l0,-2.429Z" style="fill-rule:nonzero;"/><path d="M197.18,738.737l8.02,-23.696l-6.462,0l-4.996,16.179l-0.092,0l-4.995,-16.179l-6.83,0l8.113,23.696l7.242,-0Z" style="fill-rule:nonzero;"/><path d="M223.855,724.345l-10.588,0c0.031,-0.458 0.13,-0.978 0.298,-1.558c0.168,-0.581 0.458,-1.131 0.871,-1.65c0.412,-0.52 0.962,-0.955 1.65,-1.306c0.687,-0.352 1.551,-0.527 2.589,-0.527c1.589,-0 2.773,0.427 3.553,1.283c0.779,0.855 1.321,2.108 1.627,3.758Zm-10.588,4.125l17.096,0c0.122,-1.833 -0.031,-3.59 -0.458,-5.271c-0.428,-1.68 -1.123,-3.177 -2.086,-4.491c-0.962,-1.314 -2.192,-2.361 -3.689,-3.14c-1.498,-0.779 -3.255,-1.169 -5.271,-1.169c-1.803,0 -3.445,0.321 -4.927,0.963c-1.482,0.642 -2.758,1.52 -3.827,2.635c-1.07,1.116 -1.895,2.437 -2.475,3.965c-0.581,1.528 -0.871,3.178 -0.871,4.95c-0,1.833 0.282,3.514 0.848,5.042c0.565,1.527 1.367,2.841 2.406,3.941c1.039,1.1 2.307,1.948 3.804,2.544c1.497,0.596 3.178,0.894 5.042,0.894c2.689,-0 4.98,-0.611 6.875,-1.834c1.894,-1.222 3.3,-3.254 4.216,-6.095l-5.729,-0c-0.214,0.733 -0.794,1.428 -1.741,2.085c-0.948,0.657 -2.078,0.985 -3.392,0.985c-1.833,0 -3.239,-0.473 -4.217,-1.42c-0.977,-0.948 -1.512,-2.475 -1.604,-4.584Z" style="fill-rule:nonzero;"/><path d="M107.577,971.049l-0,32.725l6.737,-0l0,-21.909l0.092,0l13.612,21.909l7.196,-0l0,-32.725l-6.737,-0l-0,21.954l-0.092,-0l-13.658,-21.954l-7.15,-0Z" style="fill-rule:nonzero;"/><path d="M146.627,991.949c-0,-0.948 0.091,-1.88 0.275,-2.796c0.183,-0.917 0.496,-1.727 0.939,-2.429c0.443,-0.703 1.031,-1.276 1.765,-1.719c0.733,-0.443 1.65,-0.665 2.75,-0.665c1.1,0 2.024,0.222 2.773,0.665c0.748,0.443 1.344,1.016 1.787,1.719c0.443,0.702 0.756,1.512 0.94,2.429c0.183,0.916 0.275,1.848 0.275,2.796c-0,0.947 -0.092,1.871 -0.275,2.772c-0.184,0.902 -0.497,1.712 -0.94,2.43c-0.443,0.718 -1.039,1.291 -1.787,1.718c-0.749,0.428 -1.673,0.642 -2.773,0.642c-1.1,0 -2.017,-0.214 -2.75,-0.642c-0.734,-0.427 -1.322,-1 -1.765,-1.718c-0.443,-0.718 -0.756,-1.528 -0.939,-2.43c-0.184,-0.901 -0.275,-1.825 -0.275,-2.772Zm-6.509,-0c0,1.894 0.291,3.605 0.871,5.133c0.581,1.528 1.406,2.834 2.475,3.919c1.07,1.084 2.353,1.917 3.85,2.498c1.497,0.58 3.178,0.87 5.042,0.87c1.864,0 3.552,-0.29 5.064,-0.87c1.513,-0.581 2.804,-1.414 3.873,-2.498c1.07,-1.085 1.895,-2.391 2.475,-3.919c0.581,-1.528 0.871,-3.239 0.871,-5.133c0,-1.895 -0.29,-3.614 -0.871,-5.157c-0.58,-1.543 -1.405,-2.857 -2.475,-3.941c-1.069,-1.085 -2.36,-1.925 -3.873,-2.521c-1.512,-0.596 -3.2,-0.894 -5.064,-0.894c-1.864,0 -3.545,0.298 -5.042,0.894c-1.497,0.596 -2.78,1.436 -3.85,2.521c-1.069,1.084 -1.894,2.398 -2.475,3.941c-0.58,1.543 -0.871,3.262 -0.871,5.157Z" style="fill-rule:nonzero;"/><path d="M175.547,976.411l0,-5.362l-6.508,-0l0,5.362l6.508,0Zm-6.508,3.667l0,23.696l6.508,-0l0,-23.696l-6.508,-0Z" style="fill-rule:nonzero;"/><path d="M185.722,996.074l-6.187,-0c0.061,1.588 0.42,2.91 1.077,3.964c0.657,1.054 1.497,1.902 2.521,2.544c1.023,0.642 2.192,1.1 3.506,1.375c1.314,0.275 2.658,0.412 4.033,0.412c1.345,0 2.666,-0.129 3.965,-0.389c1.299,-0.26 2.452,-0.711 3.46,-1.352c1.009,-0.642 1.826,-1.49 2.453,-2.544c0.626,-1.054 0.939,-2.36 0.939,-3.919c0,-1.1 -0.214,-2.024 -0.642,-2.773c-0.427,-0.748 -0.993,-1.375 -1.695,-1.879c-0.703,-0.504 -1.505,-0.909 -2.407,-1.214c-0.901,-0.306 -1.825,-0.566 -2.773,-0.78c-0.916,-0.214 -1.818,-0.412 -2.704,-0.595c-0.886,-0.184 -1.673,-0.39 -2.36,-0.619c-0.688,-0.229 -1.245,-0.527 -1.673,-0.894c-0.428,-0.367 -0.642,-0.84 -0.642,-1.421c0,-0.489 0.123,-0.878 0.367,-1.169c0.244,-0.29 0.542,-0.511 0.894,-0.664c0.351,-0.153 0.741,-0.252 1.168,-0.298c0.428,-0.046 0.825,-0.069 1.192,-0.069c1.161,0 2.17,0.222 3.025,0.665c0.856,0.443 1.329,1.291 1.421,2.544l6.187,-0c-0.122,-1.467 -0.496,-2.682 -1.122,-3.644c-0.627,-0.963 -1.414,-1.734 -2.361,-2.315c-0.947,-0.58 -2.024,-0.993 -3.231,-1.237c-1.207,-0.245 -2.452,-0.367 -3.736,-0.367c-1.283,0 -2.536,0.115 -3.758,0.344c-1.222,0.229 -2.322,0.626 -3.3,1.191c-0.978,0.566 -1.764,1.337 -2.36,2.315c-0.596,0.978 -0.894,2.231 -0.894,3.758c-0,1.039 0.214,1.918 0.642,2.636c0.427,0.718 0.993,1.314 1.695,1.787c0.703,0.474 1.505,0.856 2.407,1.146c0.901,0.29 1.825,0.542 2.773,0.756c2.322,0.489 4.132,0.978 5.431,1.467c1.298,0.489 1.948,1.222 1.948,2.2c-0,0.581 -0.138,1.062 -0.413,1.444c-0.275,0.382 -0.618,0.687 -1.031,0.916c-0.412,0.23 -0.871,0.398 -1.375,0.505c-0.504,0.107 -0.985,0.16 -1.444,0.16c-0.641,0 -1.26,-0.076 -1.856,-0.229c-0.596,-0.153 -1.123,-0.39 -1.581,-0.711c-0.459,-0.32 -0.833,-0.733 -1.123,-1.237c-0.29,-0.504 -0.436,-1.108 -0.436,-1.81Z" style="fill-rule:nonzero;"/><path d="M221.243,989.382l-10.587,-0c0.03,-0.458 0.13,-0.978 0.298,-1.558c0.168,-0.581 0.458,-1.131 0.871,-1.65c0.412,-0.52 0.962,-0.955 1.65,-1.307c0.687,-0.351 1.55,-0.527 2.589,-0.527c1.589,0 2.773,0.428 3.552,1.284c0.779,0.855 1.322,2.108 1.627,3.758Zm-10.587,4.125l17.096,-0c0.122,-1.833 -0.031,-3.59 -0.459,-5.271c-0.427,-1.681 -1.123,-3.178 -2.085,-4.492c-0.963,-1.314 -2.192,-2.36 -3.69,-3.139c-1.497,-0.779 -3.254,-1.169 -5.271,-1.169c-1.802,0 -3.445,0.321 -4.927,0.963c-1.482,0.641 -2.757,1.52 -3.827,2.635c-1.069,1.115 -1.894,2.437 -2.475,3.965c-0.58,1.527 -0.871,3.177 -0.871,4.95c0,1.833 0.283,3.513 0.848,5.041c0.566,1.528 1.368,2.842 2.407,3.942c1.039,1.1 2.307,1.948 3.804,2.544c1.497,0.595 3.178,0.893 5.041,0.893c2.689,0 4.981,-0.611 6.875,-1.833c1.895,-1.222 3.3,-3.254 4.217,-6.096l-5.729,0c-0.214,0.734 -0.794,1.429 -1.742,2.086c-0.947,0.657 -2.077,0.985 -3.391,0.985c-1.834,0 -3.239,-0.474 -4.217,-1.421c-0.978,-0.947 -1.513,-2.475 -1.604,-4.583Z" style="fill-rule:nonzero;"/><path d="M165.499,1145.97l0,-7.654l6.738,-0c0.642,-0 1.26,0.053 1.856,0.16c0.596,0.107 1.123,0.298 1.581,0.573c0.459,0.275 0.825,0.657 1.1,1.146c0.275,0.489 0.413,1.115 0.413,1.879c-0,1.375 -0.413,2.368 -1.238,2.979c-0.825,0.612 -1.879,0.917 -3.162,0.917l-7.288,0Zm-7.195,-13.246l-0,32.725l15.858,0c1.467,0 2.895,-0.183 4.285,-0.55c1.391,-0.366 2.628,-0.932 3.713,-1.696c1.085,-0.763 1.948,-1.749 2.589,-2.956c0.642,-1.207 0.963,-2.635 0.963,-4.285c-0,-2.047 -0.497,-3.797 -1.49,-5.248c-0.993,-1.452 -2.498,-2.467 -4.514,-3.048c1.466,-0.703 2.574,-1.604 3.323,-2.704c0.748,-1.1 1.123,-2.475 1.123,-4.125c-0,-1.528 -0.252,-2.811 -0.757,-3.85c-0.504,-1.039 -1.214,-1.872 -2.131,-2.498c-0.917,-0.627 -2.017,-1.077 -3.3,-1.352c-1.283,-0.275 -2.704,-0.413 -4.262,-0.413l-15.4,0Zm7.195,27.134l0,-8.984l7.838,0c1.558,0 2.811,0.359 3.758,1.077c0.948,0.718 1.421,1.918 1.421,3.598c0,0.856 -0.145,1.559 -0.435,2.109c-0.291,0.55 -0.68,0.985 -1.169,1.306c-0.489,0.321 -1.054,0.55 -1.696,0.687c-0.642,0.138 -1.314,0.207 -2.017,0.207l-7.7,-0Z" style="fill-rule:nonzero;"/><path d="M201.57,1168.38l9.9,-26.63l-6.737,0l-5.179,16.225l-0.092,0l-5.363,-16.225l-6.92,0l8.295,22.23c0.184,0.458 0.275,0.947 0.275,1.466c0,0.703 -0.206,1.345 -0.618,1.925c-0.413,0.581 -1.047,0.917 -1.902,1.009c-0.642,0.03 -1.284,0.015 -1.925,-0.046c-0.642,-0.061 -1.268,-0.122 -1.88,-0.184l0,5.363c0.673,0.061 1.337,0.115 1.994,0.16c0.657,0.046 1.322,0.069 1.994,0.069c2.231,0 3.972,-0.412 5.225,-1.237c1.253,-0.825 2.231,-2.2 2.933,-4.125Z" style="fill-rule:nonzero;"/><path d="M225.633,1161.18c-1.039,-0 -1.925,-0.214 -2.659,-0.642c-0.733,-0.428 -1.321,-0.985 -1.764,-1.673c-0.443,-0.687 -0.764,-1.489 -0.963,-2.406c-0.198,-0.917 -0.298,-1.849 -0.298,-2.796c0,-0.978 0.092,-1.925 0.275,-2.842c0.184,-0.916 0.497,-1.726 0.94,-2.429c0.443,-0.702 1.024,-1.275 1.742,-1.718c0.718,-0.444 1.612,-0.665 2.681,-0.665c1.039,-0 1.917,0.221 2.635,0.665c0.718,0.443 1.307,1.023 1.765,1.741c0.458,0.718 0.787,1.536 0.985,2.452c0.199,0.917 0.298,1.849 0.298,2.796c0,0.947 -0.091,1.879 -0.275,2.796c-0.183,0.917 -0.496,1.719 -0.939,2.406c-0.443,0.688 -1.024,1.245 -1.742,1.673c-0.718,0.428 -1.612,0.642 -2.681,0.642Zm-11.963,-19.434l0,31.992l6.509,0l-0,-11.229l0.091,-0c0.795,1.161 1.811,2.04 3.048,2.635c1.238,0.596 2.59,0.894 4.056,0.894c1.742,0 3.262,-0.336 4.561,-1.008c1.298,-0.672 2.383,-1.574 3.254,-2.704c0.871,-1.131 1.52,-2.43 1.948,-3.896c0.428,-1.467 0.642,-2.995 0.642,-4.584c-0,-1.68 -0.214,-3.292 -0.642,-4.835c-0.428,-1.543 -1.085,-2.895 -1.971,-4.056c-0.886,-1.161 -2.001,-2.093 -3.346,-2.796c-1.344,-0.703 -2.948,-1.054 -4.812,-1.054c-1.467,-0 -2.811,0.29 -4.034,0.871c-1.222,0.58 -2.23,1.512 -3.025,2.795l-0.091,0l-0,-3.025l-6.188,0Z" style="fill-rule:nonzero;"/><path d="M241.399,1149.04c0.092,-1.528 0.474,-2.796 1.146,-3.804c0.673,-1.009 1.528,-1.818 2.567,-2.429c1.039,-0.611 2.208,-1.047 3.506,-1.307c1.299,-0.259 2.605,-0.389 3.919,-0.389c1.192,-0 2.399,0.084 3.621,0.252c1.222,0.168 2.337,0.496 3.346,0.985c1.008,0.489 1.833,1.169 2.475,2.04c0.641,0.871 0.962,2.024 0.962,3.46l0,12.329c0,1.07 0.061,2.094 0.183,3.071c0.123,0.978 0.337,1.711 0.642,2.2l-6.6,0c-0.122,-0.366 -0.221,-0.741 -0.298,-1.123c-0.076,-0.382 -0.13,-0.771 -0.16,-1.168c-1.039,1.069 -2.261,1.818 -3.667,2.245c-1.405,0.428 -2.842,0.642 -4.308,0.642c-1.131,0 -2.185,-0.137 -3.163,-0.412c-0.977,-0.275 -1.833,-0.703 -2.566,-1.284c-0.734,-0.58 -1.307,-1.314 -1.719,-2.2c-0.413,-0.886 -0.619,-1.94 -0.619,-3.162c0,-1.345 0.237,-2.452 0.711,-3.323c0.473,-0.871 1.084,-1.566 1.833,-2.086c0.748,-0.519 1.604,-0.909 2.567,-1.168c0.962,-0.26 1.932,-0.466 2.91,-0.619c0.978,-0.153 1.94,-0.275 2.887,-0.367c0.948,-0.091 1.788,-0.229 2.521,-0.412c0.734,-0.184 1.314,-0.451 1.742,-0.802c0.428,-0.352 0.626,-0.863 0.596,-1.536c-0,-0.702 -0.115,-1.26 -0.344,-1.673c-0.229,-0.412 -0.535,-0.733 -0.917,-0.962c-0.382,-0.229 -0.825,-0.382 -1.329,-0.458c-0.504,-0.077 -1.046,-0.115 -1.627,-0.115c-1.283,-0 -2.292,0.275 -3.025,0.825c-0.733,0.55 -1.161,1.467 -1.283,2.75l-6.509,-0Zm15.034,4.812c-0.275,0.245 -0.619,0.436 -1.031,0.573c-0.413,0.138 -0.856,0.252 -1.33,0.344c-0.473,0.092 -0.97,0.168 -1.489,0.229c-0.52,0.061 -1.039,0.138 -1.559,0.229c-0.488,0.092 -0.97,0.214 -1.443,0.367c-0.474,0.153 -0.886,0.359 -1.238,0.619c-0.351,0.26 -0.634,0.588 -0.848,0.985c-0.214,0.398 -0.321,0.902 -0.321,1.513c0,0.58 0.107,1.069 0.321,1.466c0.214,0.398 0.504,0.711 0.871,0.94c0.367,0.229 0.795,0.39 1.283,0.481c0.489,0.092 0.994,0.138 1.513,0.138c1.283,-0 2.276,-0.214 2.979,-0.642c0.703,-0.428 1.222,-0.939 1.558,-1.535c0.337,-0.596 0.543,-1.2 0.619,-1.811c0.077,-0.611 0.115,-1.1 0.115,-1.466l-0,-2.43Z" style="fill-rule:nonzero;"/><path d="M273.024,1157.75l-6.187,0c0.061,1.589 0.42,2.911 1.077,3.965c0.657,1.054 1.497,1.902 2.521,2.544c1.023,0.641 2.192,1.1 3.506,1.375c1.314,0.275 2.658,0.412 4.033,0.412c1.345,0 2.666,-0.13 3.965,-0.389c1.299,-0.26 2.452,-0.711 3.46,-1.353c1.009,-0.641 1.826,-1.489 2.453,-2.543c0.626,-1.054 0.939,-2.361 0.939,-3.919c0,-1.1 -0.214,-2.024 -0.642,-2.773c-0.427,-0.749 -0.993,-1.375 -1.695,-1.879c-0.703,-0.504 -1.505,-0.909 -2.407,-1.215c-0.901,-0.305 -1.825,-0.565 -2.773,-0.779c-0.916,-0.214 -1.818,-0.412 -2.704,-0.596c-0.886,-0.183 -1.673,-0.389 -2.36,-0.618c-0.688,-0.23 -1.245,-0.528 -1.673,-0.894c-0.428,-0.367 -0.642,-0.84 -0.642,-1.421c0,-0.489 0.123,-0.879 0.367,-1.169c0.244,-0.29 0.542,-0.512 0.894,-0.664c0.351,-0.153 0.741,-0.252 1.168,-0.298c0.428,-0.046 0.825,-0.069 1.192,-0.069c1.161,-0 2.17,0.221 3.025,0.665c0.856,0.443 1.329,1.291 1.421,2.543l6.187,0c-0.122,-1.466 -0.496,-2.681 -1.122,-3.643c-0.627,-0.963 -1.414,-1.734 -2.361,-2.315c-0.947,-0.581 -2.024,-0.993 -3.231,-1.238c-1.207,-0.244 -2.452,-0.366 -3.736,-0.366c-1.283,-0 -2.536,0.114 -3.758,0.344c-1.222,0.229 -2.322,0.626 -3.3,1.191c-0.978,0.565 -1.764,1.337 -2.36,2.315c-0.596,0.978 -0.894,2.23 -0.894,3.758c-0,1.039 0.214,1.917 0.642,2.636c0.427,0.718 0.993,1.313 1.695,1.787c0.703,0.474 1.505,0.856 2.407,1.146c0.901,0.29 1.825,0.542 2.773,0.756c2.322,0.489 4.132,0.978 5.431,1.467c1.298,0.489 1.948,1.222 1.948,2.2c-0,0.58 -0.138,1.062 -0.413,1.444c-0.275,0.381 -0.618,0.687 -1.031,0.916c-0.412,0.229 -0.871,0.397 -1.375,0.504c-0.504,0.107 -0.985,0.161 -1.444,0.161c-0.641,-0 -1.26,-0.077 -1.856,-0.229c-0.596,-0.153 -1.123,-0.39 -1.581,-0.711c-0.459,-0.321 -0.833,-0.733 -1.123,-1.237c-0.29,-0.504 -0.436,-1.108 -0.436,-1.811Z" style="fill-rule:nonzero;"/><path d="M297.637,1157.75l-6.188,0c0.062,1.589 0.421,2.911 1.078,3.965c0.656,1.054 1.497,1.902 2.52,2.544c1.024,0.641 2.193,1.1 3.507,1.375c1.314,0.275 2.658,0.412 4.033,0.412c1.344,0 2.666,-0.13 3.965,-0.389c1.298,-0.26 2.452,-0.711 3.46,-1.353c1.008,-0.641 1.826,-1.489 2.452,-2.543c0.626,-1.054 0.94,-2.361 0.94,-3.919c-0,-1.1 -0.214,-2.024 -0.642,-2.773c-0.428,-0.749 -0.993,-1.375 -1.696,-1.879c-0.703,-0.504 -1.505,-0.909 -2.406,-1.215c-0.902,-0.305 -1.826,-0.565 -2.773,-0.779c-0.917,-0.214 -1.818,-0.412 -2.704,-0.596c-0.886,-0.183 -1.673,-0.389 -2.361,-0.618c-0.687,-0.23 -1.245,-0.528 -1.673,-0.894c-0.427,-0.367 -0.641,-0.84 -0.641,-1.421c-0,-0.489 0.122,-0.879 0.366,-1.169c0.245,-0.29 0.543,-0.512 0.894,-0.664c0.352,-0.153 0.741,-0.252 1.169,-0.298c0.428,-0.046 0.825,-0.069 1.192,-0.069c1.161,-0 2.169,0.221 3.025,0.665c0.855,0.443 1.329,1.291 1.42,2.543l6.188,0c-0.122,-1.466 -0.497,-2.681 -1.123,-3.643c-0.626,-0.963 -1.413,-1.734 -2.36,-2.315c-0.948,-0.581 -2.025,-0.993 -3.232,-1.238c-1.207,-0.244 -2.452,-0.366 -3.735,-0.366c-1.283,-0 -2.536,0.114 -3.758,0.344c-1.223,0.229 -2.323,0.626 -3.3,1.191c-0.978,0.565 -1.765,1.337 -2.361,2.315c-0.596,0.978 -0.894,2.23 -0.894,3.758c0,1.039 0.214,1.917 0.642,2.636c0.428,0.718 0.993,1.313 1.696,1.787c0.703,0.474 1.505,0.856 2.406,1.146c0.902,0.29 1.826,0.542 2.773,0.756c2.322,0.489 4.133,0.978 5.431,1.467c1.299,0.489 1.948,1.222 1.948,2.2c0,0.58 -0.137,1.062 -0.412,1.444c-0.275,0.381 -0.619,0.687 -1.031,0.916c-0.413,0.229 -0.871,0.397 -1.375,0.504c-0.505,0.107 -0.986,0.161 -1.444,0.161c-0.642,-0 -1.261,-0.077 -1.856,-0.229c-0.596,-0.153 -1.123,-0.39 -1.582,-0.711c-0.458,-0.321 -0.832,-0.733 -1.123,-1.237c-0.29,-0.504 -0.435,-1.108 -0.435,-1.811Z" style="fill-rule:nonzero;"/><path d="M542.927,1148.12l-0,-9.808l5.591,-0c0.825,-0 1.62,0.061 2.384,0.183c0.764,0.123 1.436,0.359 2.016,0.711c0.581,0.351 1.047,0.848 1.398,1.489c0.352,0.642 0.527,1.482 0.527,2.521c0,1.039 -0.175,1.879 -0.527,2.521c-0.351,0.642 -0.817,1.138 -1.398,1.49c-0.58,0.351 -1.252,0.588 -2.016,0.71c-0.764,0.122 -1.559,0.183 -2.384,0.183l-5.591,0Zm-7.196,-15.4l-0,32.725l7.196,0l-0,-11.733l7.562,-0c2.048,-0 3.789,-0.298 5.225,-0.894c1.436,-0.596 2.605,-1.382 3.507,-2.36c0.901,-0.978 1.558,-2.101 1.97,-3.369c0.413,-1.268 0.619,-2.559 0.619,-3.873c0,-1.344 -0.206,-2.643 -0.619,-3.896c-0.412,-1.252 -1.069,-2.368 -1.97,-3.346c-0.902,-0.977 -2.071,-1.764 -3.507,-2.36c-1.436,-0.596 -3.177,-0.894 -5.225,-0.894l-14.758,0Z" style="fill-rule:nonzero;"/><path d="M565.614,1141.75l0,23.696l6.509,0l-0,-10.679c-0,-1.069 0.107,-2.062 0.32,-2.979c0.214,-0.917 0.573,-1.719 1.078,-2.406c0.504,-0.688 1.168,-1.23 1.993,-1.627c0.825,-0.398 1.834,-0.596 3.025,-0.596c0.398,-0 0.81,0.023 1.238,0.069c0.428,0.045 0.794,0.099 1.1,0.16l-0,-6.05c-0.52,-0.153 -0.993,-0.229 -1.421,-0.229c-0.825,-0 -1.619,0.122 -2.383,0.366c-0.764,0.245 -1.482,0.589 -2.155,1.032c-0.672,0.443 -1.268,0.977 -1.787,1.604c-0.519,0.626 -0.932,1.306 -1.238,2.039l-0.091,0l-0,-4.4l-6.188,0Z" style="fill-rule:nonzero;"/><path d="M598.568,1151.05l-10.587,-0c0.031,-0.459 0.13,-0.978 0.298,-1.559c0.168,-0.58 0.458,-1.13 0.871,-1.65c0.412,-0.519 0.962,-0.955 1.65,-1.306c0.687,-0.351 1.55,-0.527 2.589,-0.527c1.589,-0 2.773,0.428 3.552,1.283c0.78,0.856 1.322,2.109 1.627,3.759Zm-10.587,4.125l17.096,-0c0.122,-1.834 -0.031,-3.591 -0.459,-5.271c-0.427,-1.681 -1.122,-3.178 -2.085,-4.492c-0.962,-1.314 -2.192,-2.36 -3.69,-3.139c-1.497,-0.78 -3.254,-1.169 -5.27,-1.169c-1.803,-0 -3.446,0.321 -4.927,0.962c-1.482,0.642 -2.758,1.52 -3.828,2.636c-1.069,1.115 -1.894,2.437 -2.475,3.964c-0.58,1.528 -0.87,3.178 -0.87,4.95c-0,1.834 0.282,3.514 0.848,5.042c0.565,1.528 1.367,2.842 2.406,3.942c1.039,1.1 2.307,1.948 3.804,2.543c1.497,0.596 3.178,0.894 5.042,0.894c2.689,0 4.98,-0.611 6.875,-1.833c1.894,-1.222 3.3,-3.254 4.216,-6.096l-5.729,-0c-0.214,0.733 -0.794,1.428 -1.742,2.085c-0.947,0.657 -2.077,0.986 -3.391,0.986c-1.834,-0 -3.239,-0.474 -4.217,-1.421c-0.978,-0.947 -1.512,-2.475 -1.604,-4.583Z" style="fill-rule:nonzero;"/><path d="M613.968,1157.75l-6.187,0c0.061,1.589 0.42,2.911 1.077,3.965c0.657,1.054 1.497,1.902 2.521,2.544c1.023,0.641 2.192,1.1 3.506,1.375c1.314,0.275 2.658,0.412 4.033,0.412c1.345,0 2.666,-0.13 3.965,-0.389c1.299,-0.26 2.452,-0.711 3.46,-1.353c1.009,-0.641 1.826,-1.489 2.453,-2.543c0.626,-1.054 0.939,-2.361 0.939,-3.919c0,-1.1 -0.214,-2.024 -0.642,-2.773c-0.427,-0.749 -0.993,-1.375 -1.695,-1.879c-0.703,-0.504 -1.505,-0.909 -2.407,-1.215c-0.901,-0.305 -1.825,-0.565 -2.773,-0.779c-0.916,-0.214 -1.818,-0.412 -2.704,-0.596c-0.886,-0.183 -1.673,-0.389 -2.36,-0.618c-0.688,-0.23 -1.245,-0.528 -1.673,-0.894c-0.428,-0.367 -0.642,-0.84 -0.642,-1.421c0,-0.489 0.123,-0.879 0.367,-1.169c0.244,-0.29 0.542,-0.512 0.894,-0.664c0.351,-0.153 0.741,-0.252 1.168,-0.298c0.428,-0.046 0.825,-0.069 1.192,-0.069c1.161,-0 2.17,0.221 3.025,0.665c0.856,0.443 1.329,1.291 1.421,2.543l6.187,0c-0.122,-1.466 -0.496,-2.681 -1.122,-3.643c-0.627,-0.963 -1.414,-1.734 -2.361,-2.315c-0.947,-0.581 -2.024,-0.993 -3.231,-1.238c-1.207,-0.244 -2.452,-0.366 -3.736,-0.366c-1.283,-0 -2.536,0.114 -3.758,0.344c-1.222,0.229 -2.322,0.626 -3.3,1.191c-0.978,0.565 -1.764,1.337 -2.36,2.315c-0.596,0.978 -0.894,2.23 -0.894,3.758c-0,1.039 0.214,1.917 0.642,2.636c0.427,0.718 0.993,1.313 1.695,1.787c0.703,0.474 1.505,0.856 2.407,1.146c0.901,0.29 1.825,0.542 2.773,0.756c2.322,0.489 4.132,0.978 5.431,1.467c1.298,0.489 1.948,1.222 1.948,2.2c-0,0.58 -0.138,1.062 -0.413,1.444c-0.275,0.381 -0.618,0.687 -1.031,0.916c-0.412,0.229 -0.871,0.397 -1.375,0.504c-0.504,0.107 -0.985,0.161 -1.444,0.161c-0.641,-0 -1.26,-0.077 -1.856,-0.229c-0.596,-0.153 -1.123,-0.39 -1.581,-0.711c-0.459,-0.321 -0.833,-0.733 -1.123,-1.237c-0.29,-0.504 -0.436,-1.108 -0.436,-1.811Z" style="fill-rule:nonzero;"/><path d="M649.489,1151.05l-10.587,-0c0.03,-0.459 0.13,-0.978 0.298,-1.559c0.168,-0.58 0.458,-1.13 0.871,-1.65c0.412,-0.519 0.962,-0.955 1.65,-1.306c0.687,-0.351 1.55,-0.527 2.589,-0.527c1.589,-0 2.773,0.428 3.552,1.283c0.779,0.856 1.322,2.109 1.627,3.759Zm-10.587,4.125l17.096,-0c0.122,-1.834 -0.031,-3.591 -0.459,-5.271c-0.427,-1.681 -1.123,-3.178 -2.085,-4.492c-0.963,-1.314 -2.192,-2.36 -3.69,-3.139c-1.497,-0.78 -3.254,-1.169 -5.271,-1.169c-1.802,-0 -3.445,0.321 -4.927,0.962c-1.482,0.642 -2.757,1.52 -3.827,2.636c-1.069,1.115 -1.894,2.437 -2.475,3.964c-0.58,1.528 -0.871,3.178 -0.871,4.95c0,1.834 0.283,3.514 0.848,5.042c0.566,1.528 1.368,2.842 2.407,3.942c1.039,1.1 2.307,1.948 3.804,2.543c1.497,0.596 3.178,0.894 5.041,0.894c2.689,0 4.981,-0.611 6.875,-1.833c1.895,-1.222 3.3,-3.254 4.217,-6.096l-5.729,-0c-0.214,0.733 -0.794,1.428 -1.742,2.085c-0.947,0.657 -2.077,0.986 -3.391,0.986c-1.834,-0 -3.239,-0.474 -4.217,-1.421c-0.978,-0.947 -1.513,-2.475 -1.604,-4.583Z" style="fill-rule:nonzero;"/><path d="M668.098,1141.75l-0,-7.104l-6.509,0l0,7.104l-3.941,0l-0,4.355l3.941,-0l0,13.979c0,1.191 0.199,2.154 0.596,2.887c0.397,0.734 0.94,1.299 1.627,1.696c0.688,0.397 1.482,0.665 2.384,0.802c0.901,0.138 1.856,0.206 2.864,0.206c0.642,0 1.299,-0.015 1.971,-0.045c0.672,-0.031 1.283,-0.092 1.833,-0.184l0,-5.041c-0.305,0.061 -0.626,0.107 -0.962,0.137c-0.336,0.031 -0.688,0.046 -1.054,0.046c-1.1,-0 -1.834,-0.183 -2.2,-0.55c-0.367,-0.367 -0.55,-1.1 -0.55,-2.2l-0,-11.733l4.766,-0l0,-4.355l-4.766,0Z" style="fill-rule:nonzero;"/><path d="M299.045,971.049l0,32.725l24.842,-0l-0,-6.05l-17.646,-0l0,-8.021l15.858,-0l0,-5.592l-15.858,0l0,-7.012l17.279,-0l0,-6.05l-24.475,-0Z" style="fill-rule:nonzero;"/><path d="M328.058,980.078l-0,23.696l6.508,-0l0,-12.421c0,-2.414 0.397,-4.148 1.192,-5.202c0.794,-1.055 2.077,-1.582 3.85,-1.582c1.558,0 2.643,0.482 3.254,1.444c0.611,0.963 0.917,2.422 0.917,4.377l-0,13.384l6.508,-0l-0,-14.575c-0,-1.467 -0.13,-2.804 -0.39,-4.011c-0.259,-1.207 -0.71,-2.23 -1.352,-3.071c-0.641,-0.84 -1.52,-1.497 -2.635,-1.971c-1.116,-0.473 -2.544,-0.71 -4.286,-0.71c-1.375,0 -2.719,0.313 -4.033,0.94c-1.314,0.626 -2.383,1.627 -3.208,3.002l-0.138,-0l0,-3.3l-6.187,-0Z" style="fill-rule:nonzero;"/><path d="M368.345,1003.77l8.021,-23.696l-6.462,-0l-4.996,16.179l-0.092,-0l-4.996,-16.179l-6.829,-0l8.113,23.696l7.241,-0Z" style="fill-rule:nonzero;"/><path d="M459.482,971.049l0,32.725l6.738,-0l-0,-22.963l0.091,0l8.021,22.963l5.546,-0l8.021,-23.192l0.091,-0l0,23.192l6.738,-0l-0,-32.725l-10.129,-0l-7.242,22.504l-0.092,-0l-7.654,-22.504l-10.129,-0Z" style="fill-rule:nonzero;"/><path d="M506.14,991.949c0,-0.948 0.092,-1.88 0.275,-2.796c0.184,-0.917 0.497,-1.727 0.94,-2.429c0.443,-0.703 1.031,-1.276 1.765,-1.719c0.733,-0.443 1.65,-0.665 2.75,-0.665c1.1,0 2.024,0.222 2.772,0.665c0.749,0.443 1.345,1.016 1.788,1.719c0.443,0.702 0.756,1.512 0.94,2.429c0.183,0.916 0.275,1.848 0.275,2.796c-0,0.947 -0.092,1.871 -0.275,2.772c-0.184,0.902 -0.497,1.712 -0.94,2.43c-0.443,0.718 -1.039,1.291 -1.788,1.718c-0.748,0.428 -1.672,0.642 -2.772,0.642c-1.1,0 -2.017,-0.214 -2.75,-0.642c-0.734,-0.427 -1.322,-1 -1.765,-1.718c-0.443,-0.718 -0.756,-1.528 -0.94,-2.43c-0.183,-0.901 -0.275,-1.825 -0.275,-2.772Zm-6.508,-0c0,1.894 0.29,3.605 0.871,5.133c0.58,1.528 1.405,2.834 2.475,3.919c1.069,1.084 2.353,1.917 3.85,2.498c1.497,0.58 3.178,0.87 5.042,0.87c1.863,0 3.552,-0.29 5.064,-0.87c1.513,-0.581 2.804,-1.414 3.873,-2.498c1.069,-1.085 1.894,-2.391 2.475,-3.919c0.581,-1.528 0.871,-3.239 0.871,-5.133c-0,-1.895 -0.29,-3.614 -0.871,-5.157c-0.581,-1.543 -1.406,-2.857 -2.475,-3.941c-1.069,-1.085 -2.36,-1.925 -3.873,-2.521c-1.512,-0.596 -3.201,-0.894 -5.064,-0.894c-1.864,0 -3.545,0.298 -5.042,0.894c-1.497,0.596 -2.781,1.436 -3.85,2.521c-1.07,1.084 -1.895,2.398 -2.475,3.941c-0.581,1.543 -0.871,3.262 -0.871,5.157Z" style="fill-rule:nonzero;"/><path d="M545.19,991.857c0,0.978 -0.091,1.925 -0.275,2.842c-0.183,0.916 -0.489,1.734 -0.916,2.452c-0.428,0.718 -1.001,1.291 -1.719,1.718c-0.718,0.428 -1.612,0.642 -2.681,0.642c-1.009,0 -1.872,-0.221 -2.59,-0.665c-0.718,-0.443 -1.314,-1.023 -1.787,-1.741c-0.474,-0.718 -0.818,-1.536 -1.032,-2.452c-0.214,-0.917 -0.32,-1.834 -0.32,-2.75c-0,-0.978 0.099,-1.918 0.297,-2.819c0.199,-0.901 0.52,-1.704 0.963,-2.406c0.443,-0.703 1.031,-1.268 1.765,-1.696c0.733,-0.428 1.634,-0.642 2.704,-0.642c1.069,0 1.955,0.214 2.658,0.642c0.703,0.428 1.276,0.985 1.719,1.673c0.443,0.687 0.756,1.482 0.939,2.383c0.184,0.902 0.275,1.841 0.275,2.819Zm0.092,8.892l0,3.025l6.188,-0l-0,-32.725l-6.509,-0l0,11.916l-0.091,0c-0.734,-1.161 -1.735,-2.039 -3.003,-2.635c-1.268,-0.596 -2.604,-0.894 -4.01,-0.894c-1.742,0 -3.269,0.344 -4.583,1.031c-1.314,0.688 -2.407,1.597 -3.277,2.727c-0.871,1.131 -1.528,2.437 -1.971,3.919c-0.443,1.482 -0.665,3.017 -0.665,4.606c0,1.65 0.222,3.239 0.665,4.767c0.443,1.528 1.1,2.88 1.971,4.056c0.87,1.177 1.978,2.109 3.323,2.796c1.344,0.688 2.902,1.031 4.675,1.031c1.558,0 2.956,-0.282 4.193,-0.848c1.238,-0.565 2.238,-1.489 3.002,-2.772l0.092,-0Z" style="fill-rule:nonzero;"/><path d="M619.781,986.449l0,-9.809l5.592,0c0.825,0 1.619,0.061 2.383,0.184c0.764,0.122 1.436,0.359 2.017,0.71c0.581,0.351 1.047,0.848 1.398,1.49c0.351,0.641 0.527,1.481 0.527,2.52c0,1.039 -0.176,1.88 -0.527,2.521c-0.351,0.642 -0.817,1.138 -1.398,1.49c-0.581,0.351 -1.253,0.588 -2.017,0.71c-0.764,0.122 -1.558,0.184 -2.383,0.184l-5.592,-0Zm-7.195,-15.4l-0,32.725l7.195,-0l0,-11.734l7.563,0c2.047,0 3.789,-0.298 5.225,-0.894c1.436,-0.595 2.605,-1.382 3.506,-2.36c0.901,-0.978 1.558,-2.101 1.971,-3.369c0.412,-1.268 0.619,-2.559 0.619,-3.873c-0,-1.344 -0.207,-2.643 -0.619,-3.895c-0.413,-1.253 -1.07,-2.369 -1.971,-3.346c-0.901,-0.978 -2.07,-1.765 -3.506,-2.361c-1.436,-0.596 -3.178,-0.893 -5.225,-0.893l-14.758,-0Z" style="fill-rule:nonzero;"/><path d="M657.961,1003.77l-0,-32.084l-5.18,0c-0.183,1.222 -0.565,2.246 -1.145,3.071c-0.581,0.825 -1.291,1.49 -2.132,1.994c-0.84,0.504 -1.787,0.855 -2.841,1.054c-1.055,0.199 -2.147,0.283 -3.277,0.252l-0,4.904l8.066,0l0,20.809l6.509,-0Z" style="fill-rule:nonzero;"/><path d="M677.761,970.269l-12.742,34.238l5.179,-0l12.788,-34.238l-5.225,0Z" style="fill-rule:nonzero;"/><path d="M692.84,986.449l-0,-9.809l5.591,0c0.825,0 1.62,0.061 2.384,0.184c0.764,0.122 1.436,0.359 2.016,0.71c0.581,0.351 1.047,0.848 1.398,1.49c0.352,0.641 0.527,1.481 0.527,2.52c0,1.039 -0.175,1.88 -0.527,2.521c-0.351,0.642 -0.817,1.138 -1.398,1.49c-0.58,0.351 -1.252,0.588 -2.016,0.71c-0.764,0.122 -1.559,0.184 -2.384,0.184l-5.591,-0Zm-7.196,-15.4l-0,32.725l7.196,-0l-0,-11.734l7.562,0c2.047,0 3.789,-0.298 5.225,-0.894c1.436,-0.595 2.605,-1.382 3.506,-2.36c0.902,-0.978 1.559,-2.101 1.971,-3.369c0.413,-1.268 0.619,-2.559 0.619,-3.873c0,-1.344 -0.206,-2.643 -0.619,-3.895c-0.412,-1.253 -1.069,-2.369 -1.971,-3.346c-0.901,-0.978 -2.07,-1.765 -3.506,-2.361c-1.436,-0.596 -3.178,-0.893 -5.225,-0.893l-14.758,-0Z" style="fill-rule:nonzero;"/><path d="M714.748,984.019l6.233,0c0,-0.855 0.084,-1.718 0.252,-2.589c0.168,-0.871 0.451,-1.665 0.848,-2.384c0.398,-0.718 0.925,-1.298 1.582,-1.741c0.657,-0.443 1.459,-0.665 2.406,-0.665c1.405,0 2.559,0.436 3.46,1.306c0.902,0.871 1.352,2.086 1.352,3.644c0,0.978 -0.221,1.849 -0.664,2.613c-0.443,0.764 -0.993,1.451 -1.65,2.062c-0.657,0.611 -1.383,1.169 -2.177,1.673c-0.795,0.504 -1.543,1.001 -2.246,1.49c-1.375,0.947 -2.681,1.879 -3.919,2.796c-1.237,0.916 -2.314,1.917 -3.231,3.002c-0.917,1.084 -1.643,2.314 -2.177,3.689c-0.535,1.375 -0.802,2.995 -0.802,4.859l23.558,-0l0,-5.592l-15.171,-0c0.795,-1.1 1.711,-2.063 2.75,-2.888c1.039,-0.825 2.109,-1.596 3.209,-2.314c1.1,-0.718 2.192,-1.444 3.277,-2.177c1.084,-0.734 2.054,-1.551 2.91,-2.452c0.856,-0.902 1.543,-1.933 2.063,-3.094c0.519,-1.161 0.779,-2.552 0.779,-4.171c-0,-1.558 -0.298,-2.964 -0.894,-4.217c-0.596,-1.252 -1.398,-2.307 -2.406,-3.162c-1.009,-0.856 -2.177,-1.513 -3.507,-1.971c-1.329,-0.458 -2.727,-0.687 -4.193,-0.687c-1.925,-0 -3.629,0.328 -5.111,0.985c-1.482,0.657 -2.712,1.574 -3.689,2.75c-0.978,1.176 -1.711,2.551 -2.2,4.125c-0.489,1.574 -0.703,3.277 -0.642,5.11Z" style="fill-rule:nonzero;"/><path d="M364.415,420.058l-6.967,0c-0.031,2.017 0.336,3.759 1.1,5.225c0.764,1.467 1.795,2.674 3.094,3.621c1.298,0.948 2.796,1.643 4.491,2.086c1.696,0.443 3.446,0.664 5.248,0.664c2.231,0 4.194,-0.259 5.89,-0.779c1.696,-0.519 3.117,-1.245 4.262,-2.177c1.146,-0.932 2.009,-2.04 2.59,-3.323c0.581,-1.283 0.871,-2.673 0.871,-4.171c-0,-1.833 -0.39,-3.338 -1.169,-4.514c-0.779,-1.177 -1.703,-2.116 -2.773,-2.819c-1.069,-0.703 -2.146,-1.215 -3.231,-1.535c-1.085,-0.321 -1.933,-0.543 -2.544,-0.665c-2.047,-0.519 -3.705,-0.947 -4.973,-1.283c-1.268,-0.336 -2.261,-0.673 -2.979,-1.009c-0.718,-0.336 -1.199,-0.702 -1.444,-1.1c-0.244,-0.397 -0.366,-0.916 -0.366,-1.558c-0,-0.703 0.152,-1.283 0.458,-1.742c0.306,-0.458 0.695,-0.84 1.169,-1.146c0.473,-0.305 1,-0.519 1.581,-0.641c0.581,-0.122 1.161,-0.184 1.742,-0.184c0.886,0 1.703,0.077 2.452,0.23c0.748,0.152 1.413,0.412 1.993,0.779c0.581,0.366 1.047,0.871 1.398,1.512c0.352,0.642 0.558,1.452 0.619,2.429l6.967,0c-0,-1.894 -0.359,-3.506 -1.077,-4.835c-0.718,-1.329 -1.688,-2.421 -2.911,-3.277c-1.222,-0.856 -2.62,-1.474 -4.193,-1.856c-1.574,-0.382 -3.216,-0.573 -4.928,-0.573c-1.466,-0 -2.933,0.198 -4.4,0.596c-1.466,0.397 -2.78,1.008 -3.941,1.833c-1.161,0.825 -2.101,1.856 -2.819,3.094c-0.718,1.237 -1.077,2.696 -1.077,4.377c-0,1.497 0.283,2.773 0.848,3.827c0.565,1.054 1.306,1.933 2.223,2.635c0.916,0.703 1.955,1.276 3.116,1.719c1.162,0.443 2.353,0.817 3.575,1.123c1.192,0.336 2.369,0.642 3.53,0.917c1.161,0.275 2.2,0.595 3.116,0.962c0.917,0.367 1.658,0.825 2.223,1.375c0.565,0.55 0.848,1.268 0.848,2.154c0,0.825 -0.214,1.505 -0.642,2.04c-0.427,0.535 -0.962,0.955 -1.604,1.26c-0.641,0.306 -1.329,0.512 -2.062,0.619c-0.734,0.107 -1.421,0.16 -2.063,0.16c-0.947,0 -1.864,-0.114 -2.75,-0.343c-0.886,-0.229 -1.657,-0.581 -2.314,-1.054c-0.657,-0.474 -1.184,-1.093 -1.582,-1.857c-0.397,-0.764 -0.595,-1.696 -0.595,-2.796Z" style="fill-rule:nonzero;"/><path d="M400.256,433.854l9.9,-26.629l-6.737,0l-5.179,16.225l-0.092,0l-5.363,-16.225l-6.92,0l8.295,22.229c0.184,0.459 0.275,0.948 0.275,1.467c0,0.703 -0.206,1.344 -0.618,1.925c-0.413,0.581 -1.047,0.917 -1.902,1.008c-0.642,0.031 -1.284,0.016 -1.925,-0.046c-0.642,-0.061 -1.268,-0.122 -1.88,-0.183l0,5.363c0.673,0.061 1.337,0.114 1.994,0.16c0.657,0.046 1.322,0.069 1.994,0.069c2.231,-0 3.972,-0.413 5.225,-1.238c1.253,-0.825 2.231,-2.2 2.933,-4.125Z" style="fill-rule:nonzero;"/><path d="M412.356,407.225l0,23.696l6.509,-0l-0,-12.421c-0,-2.414 0.397,-4.148 1.191,-5.202c0.795,-1.054 2.078,-1.581 3.85,-1.581c1.559,-0 2.643,0.481 3.254,1.444c0.612,0.962 0.917,2.421 0.917,4.377l0,13.383l6.508,-0l0,-14.575c0,-1.467 -0.129,-2.803 -0.389,-4.01c-0.26,-1.207 -0.711,-2.231 -1.352,-3.071c-0.642,-0.841 -1.52,-1.497 -2.636,-1.971c-1.115,-0.474 -2.543,-0.711 -4.285,-0.711c-1.375,0 -2.719,0.314 -4.033,0.94c-1.314,0.626 -2.384,1.627 -3.209,3.002l-0.137,0l-0,-3.3l-6.188,0Z" style="fill-rule:nonzero;"/><path d="M447.785,407.225l0,-7.104l-6.508,-0l0,7.104l-3.942,0l0,4.354l3.942,0l0,13.979c0,1.192 0.199,2.155 0.596,2.888c0.397,0.733 0.94,1.299 1.627,1.696c0.688,0.397 1.482,0.664 2.383,0.802c0.902,0.137 1.857,0.206 2.865,0.206c0.642,0 1.299,-0.015 1.971,-0.046c0.672,-0.03 1.283,-0.091 1.833,-0.183l0,-5.042c-0.305,0.061 -0.626,0.107 -0.962,0.138c-0.336,0.03 -0.688,0.046 -1.055,0.046c-1.1,-0 -1.833,-0.184 -2.2,-0.55c-0.366,-0.367 -0.55,-1.1 -0.55,-2.2l0,-11.734l4.767,0l0,-4.354l-4.767,0Z" style="fill-rule:nonzero;"/><path d="M455.669,398.196l-0,32.725l6.508,-0l0,-12.421c0,-2.414 0.397,-4.148 1.192,-5.202c0.794,-1.054 2.078,-1.581 3.85,-1.581c1.558,-0 2.643,0.481 3.254,1.444c0.611,0.962 0.917,2.421 0.917,4.377l-0,13.383l6.508,-0l-0,-14.575c-0,-1.467 -0.13,-2.803 -0.39,-4.01c-0.259,-1.207 -0.71,-2.231 -1.352,-3.071c-0.641,-0.841 -1.52,-1.497 -2.635,-1.971c-1.115,-0.474 -2.544,-0.711 -4.286,-0.711c-1.222,0 -2.475,0.314 -3.758,0.94c-1.283,0.626 -2.337,1.627 -3.162,3.002l-0.138,0l0,-12.329l-6.508,-0Z" style="fill-rule:nonzero;"/><path d="M365.973,706.012l-0,32.725l7.196,-0l-0,-13.521l13.704,0l-0,-5.592l-13.704,0l-0,-7.562l15.812,-0l0,-6.05l-23.008,-0Z" style="fill-rule:nonzero;"/><path d="M399.156,711.374l0,-5.362l-6.508,-0l-0,5.362l6.508,0Zm-6.508,3.667l-0,23.696l6.508,-0l0,-23.696l-6.508,0Z" style="fill-rule:nonzero;"/><rect x="404.473" y="706.012" width="6.508" height="32.725" style="fill-rule:nonzero;"/><path d="M424.365,715.041l-0,-7.104l-6.509,-0l0,7.104l-3.941,0l-0,4.354l3.941,0l0,13.979c0,1.192 0.199,2.155 0.596,2.888c0.397,0.733 0.94,1.298 1.627,1.696c0.688,0.397 1.482,0.664 2.384,0.802c0.901,0.137 1.856,0.206 2.864,0.206c0.642,0 1.299,-0.015 1.971,-0.046c0.672,-0.03 1.283,-0.091 1.833,-0.183l0,-5.042c-0.305,0.061 -0.626,0.107 -0.962,0.138c-0.336,0.03 -0.688,0.046 -1.054,0.046c-1.1,-0 -1.834,-0.184 -2.2,-0.55c-0.367,-0.367 -0.55,-1.1 -0.55,-2.2l-0,-11.734l4.766,0l0,-4.354l-4.766,0Z" style="fill-rule:nonzero;"/><path d="M448.198,724.345l-10.588,0c0.031,-0.458 0.13,-0.978 0.298,-1.558c0.168,-0.581 0.459,-1.131 0.871,-1.65c0.413,-0.52 0.963,-0.955 1.65,-1.306c0.688,-0.352 1.551,-0.527 2.59,-0.527c1.589,-0 2.773,0.427 3.552,1.283c0.779,0.855 1.321,2.108 1.627,3.758Zm-10.588,4.125l17.096,0c0.123,-1.833 -0.03,-3.59 -0.458,-5.271c-0.428,-1.68 -1.123,-3.177 -2.085,-4.491c-0.963,-1.314 -2.193,-2.361 -3.69,-3.14c-1.497,-0.779 -3.254,-1.169 -5.271,-1.169c-1.803,0 -3.445,0.321 -4.927,0.963c-1.482,0.642 -2.758,1.52 -3.827,2.635c-1.069,1.116 -1.894,2.437 -2.475,3.965c-0.581,1.528 -0.871,3.178 -0.871,4.95c0,1.833 0.283,3.514 0.848,5.042c0.565,1.527 1.367,2.841 2.406,3.941c1.039,1.1 2.307,1.948 3.804,2.544c1.498,0.596 3.178,0.894 5.042,0.894c2.689,-0 4.981,-0.611 6.875,-1.834c1.895,-1.222 3.3,-3.254 4.217,-6.095l-5.729,-0c-0.214,0.733 -0.795,1.428 -1.742,2.085c-0.947,0.657 -2.078,0.985 -3.392,0.985c-1.833,0 -3.239,-0.473 -4.216,-1.42c-0.978,-0.948 -1.513,-2.475 -1.605,-4.584Z" style="fill-rule:nonzero;"/><path d="M458.556,715.041l0,23.696l6.509,-0l-0,-10.679c-0,-1.07 0.107,-2.063 0.32,-2.979c0.214,-0.917 0.573,-1.719 1.078,-2.407c0.504,-0.687 1.168,-1.23 1.993,-1.627c0.825,-0.397 1.834,-0.596 3.025,-0.596c0.398,0 0.81,0.023 1.238,0.069c0.428,0.046 0.794,0.099 1.1,0.161l-0,-6.05c-0.52,-0.153 -0.993,-0.23 -1.421,-0.23c-0.825,0 -1.619,0.123 -2.383,0.367c-0.764,0.244 -1.482,0.588 -2.155,1.031c-0.672,0.443 -1.268,0.978 -1.787,1.604c-0.519,0.627 -0.932,1.307 -1.238,2.04l-0.091,0l-0,-4.4l-6.188,0Z" style="fill-rule:nonzero;"/><path d="M597.597,404.246l-0,26.675l7.195,-0l0,-26.675l9.809,-0l-0,-6.05l-26.813,-0l0,6.05l9.809,-0Z" style="fill-rule:nonzero;"/><path d="M613.455,407.225l-0,23.696l6.508,-0l0,-10.679c0,-1.07 0.107,-2.063 0.321,-2.979c0.214,-0.917 0.573,-1.719 1.077,-2.407c0.504,-0.687 1.169,-1.229 1.994,-1.627c0.825,-0.397 1.833,-0.596 3.025,-0.596c0.397,0 0.81,0.023 1.237,0.069c0.428,0.046 0.795,0.1 1.1,0.161l0,-6.05c-0.519,-0.153 -0.993,-0.23 -1.42,-0.23c-0.825,0 -1.62,0.123 -2.384,0.367c-0.764,0.245 -1.482,0.588 -2.154,1.031c-0.672,0.443 -1.268,0.978 -1.787,1.605c-0.52,0.626 -0.932,1.306 -1.238,2.039l-0.092,0l0,-4.4l-6.187,0Z" style="fill-rule:nonzero;"/><path d="M637.976,403.558l-0,-5.362l-6.509,-0l0,5.362l6.509,0Zm-6.509,3.667l0,23.696l6.509,-0l-0,-23.696l-6.509,0Z" style="fill-rule:nonzero;"/><path d="M654.155,425.329c-1.008,0 -1.849,-0.214 -2.521,-0.641c-0.672,-0.428 -1.214,-0.978 -1.627,-1.65c-0.412,-0.673 -0.703,-1.429 -0.871,-2.269c-0.168,-0.84 -0.252,-1.688 -0.252,-2.544c0,-0.886 0.099,-1.734 0.298,-2.544c0.199,-0.809 0.52,-1.527 0.963,-2.154c0.443,-0.626 0.993,-1.123 1.65,-1.489c0.657,-0.367 1.443,-0.55 2.36,-0.55c1.069,-0 1.956,0.198 2.658,0.595c0.703,0.398 1.268,0.932 1.696,1.605c0.428,0.672 0.733,1.443 0.917,2.314c0.183,0.871 0.275,1.795 0.275,2.773c-0,0.856 -0.115,1.673 -0.344,2.452c-0.229,0.779 -0.573,1.475 -1.031,2.086c-0.459,0.611 -1.039,1.1 -1.742,1.466c-0.703,0.367 -1.512,0.55 -2.429,0.55Zm11.733,4.079l0,-22.183l-6.187,0l-0,3.163l-0.092,-0c-0.794,-1.375 -1.78,-2.353 -2.956,-2.934c-1.176,-0.58 -2.544,-0.871 -4.102,-0.871c-1.65,0 -3.109,0.321 -4.377,0.963c-1.268,0.642 -2.33,1.505 -3.186,2.59c-0.855,1.084 -1.505,2.337 -1.948,3.758c-0.443,1.421 -0.664,2.895 -0.664,4.423c-0,1.619 0.191,3.155 0.573,4.606c0.382,1.451 0.985,2.72 1.81,3.804c0.825,1.085 1.879,1.941 3.163,2.567c1.283,0.626 2.811,0.939 4.583,0.939c1.436,0 2.803,-0.297 4.102,-0.893c1.299,-0.596 2.299,-1.52 3.002,-2.773l0.092,-0l-0,3.116c0.03,1.681 -0.374,3.071 -1.215,4.171c-0.84,1.1 -2.177,1.65 -4.01,1.65c-1.161,0 -2.185,-0.236 -3.071,-0.71c-0.886,-0.474 -1.482,-1.322 -1.788,-2.544l-6.462,0c0.092,1.345 0.466,2.498 1.123,3.461c0.657,0.962 1.482,1.749 2.475,2.36c0.993,0.611 2.093,1.062 3.3,1.352c1.207,0.29 2.391,0.435 3.552,0.435c2.719,0 4.889,-0.366 6.508,-1.1c1.62,-0.733 2.857,-1.627 3.713,-2.681c0.855,-1.054 1.413,-2.192 1.673,-3.414c0.259,-1.223 0.389,-2.307 0.389,-3.255Z" style="fill-rule:nonzero;"/><path d="M682.159,425.329c-1.008,0 -1.848,-0.214 -2.521,-0.641c-0.672,-0.428 -1.214,-0.978 -1.627,-1.65c-0.412,-0.673 -0.703,-1.429 -0.871,-2.269c-0.168,-0.84 -0.252,-1.688 -0.252,-2.544c0,-0.886 0.1,-1.734 0.298,-2.544c0.199,-0.809 0.52,-1.527 0.963,-2.154c0.443,-0.626 0.993,-1.123 1.65,-1.489c0.657,-0.367 1.443,-0.55 2.36,-0.55c1.07,-0 1.956,0.198 2.658,0.595c0.703,0.398 1.269,0.932 1.696,1.605c0.428,0.672 0.734,1.443 0.917,2.314c0.183,0.871 0.275,1.795 0.275,2.773c-0,0.856 -0.115,1.673 -0.344,2.452c-0.229,0.779 -0.573,1.475 -1.031,2.086c-0.458,0.611 -1.039,1.1 -1.742,1.466c-0.702,0.367 -1.512,0.55 -2.429,0.55Zm11.733,4.079l0,-22.183l-6.187,0l-0,3.163l-0.092,-0c-0.794,-1.375 -1.78,-2.353 -2.956,-2.934c-1.176,-0.58 -2.544,-0.871 -4.102,-0.871c-1.65,0 -3.109,0.321 -4.377,0.963c-1.268,0.642 -2.33,1.505 -3.186,2.59c-0.855,1.084 -1.504,2.337 -1.947,3.758c-0.443,1.421 -0.665,2.895 -0.665,4.423c-0,1.619 0.191,3.155 0.573,4.606c0.382,1.451 0.985,2.72 1.81,3.804c0.825,1.085 1.879,1.941 3.163,2.567c1.283,0.626 2.811,0.939 4.583,0.939c1.436,0 2.804,-0.297 4.102,-0.893c1.299,-0.596 2.3,-1.52 3.002,-2.773l0.092,-0l-0,3.116c0.031,1.681 -0.374,3.071 -1.215,4.171c-0.84,1.1 -2.177,1.65 -4.01,1.65c-1.161,0 -2.185,-0.236 -3.071,-0.71c-0.886,-0.474 -1.482,-1.322 -1.787,-2.544l-6.463,0c0.092,1.345 0.466,2.498 1.123,3.461c0.657,0.962 1.482,1.749 2.475,2.36c0.993,0.611 2.093,1.062 3.3,1.352c1.207,0.29 2.391,0.435 3.552,0.435c2.72,0 4.889,-0.366 6.508,-1.1c1.62,-0.733 2.857,-1.627 3.713,-2.681c0.856,-1.054 1.413,-2.192 1.673,-3.414c0.26,-1.223 0.389,-2.307 0.389,-3.255Z" style="fill-rule:nonzero;"/><path d="M715.067,416.529l-10.587,0c0.031,-0.458 0.13,-0.977 0.298,-1.558c0.168,-0.581 0.458,-1.131 0.871,-1.65c0.412,-0.519 0.962,-0.955 1.65,-1.306c0.687,-0.352 1.55,-0.527 2.589,-0.527c1.589,-0 2.773,0.427 3.552,1.283c0.78,0.856 1.322,2.108 1.627,3.758Zm-10.587,4.125l17.096,0c0.122,-1.833 -0.031,-3.59 -0.459,-5.271c-0.427,-1.68 -1.122,-3.177 -2.085,-4.491c-0.962,-1.314 -2.192,-2.361 -3.69,-3.14c-1.497,-0.779 -3.254,-1.169 -5.27,-1.169c-1.803,0 -3.445,0.321 -4.927,0.963c-1.482,0.642 -2.758,1.52 -3.828,2.635c-1.069,1.116 -1.894,2.437 -2.475,3.965c-0.58,1.528 -0.87,3.178 -0.87,4.95c-0,1.833 0.282,3.514 0.848,5.042c0.565,1.527 1.367,2.841 2.406,3.941c1.039,1.1 2.307,1.948 3.804,2.544c1.497,0.596 3.178,0.894 5.042,0.894c2.689,-0 4.98,-0.611 6.875,-1.834c1.894,-1.222 3.3,-3.254 4.216,-6.095l-5.729,-0c-0.214,0.733 -0.794,1.428 -1.742,2.085c-0.947,0.657 -2.077,0.985 -3.391,0.985c-1.834,0 -3.239,-0.473 -4.217,-1.42c-0.978,-0.948 -1.512,-2.475 -1.604,-4.584Z" style="fill-rule:nonzero;"/><path d="M725.426,407.225l-0,23.696l6.508,-0l0,-10.679c0,-1.07 0.107,-2.063 0.321,-2.979c0.214,-0.917 0.573,-1.719 1.077,-2.407c0.504,-0.687 1.169,-1.229 1.994,-1.627c0.825,-0.397 1.833,-0.596 3.025,-0.596c0.397,0 0.81,0.023 1.237,0.069c0.428,0.046 0.795,0.1 1.1,0.161l0,-6.05c-0.519,-0.153 -0.993,-0.23 -1.421,-0.23c-0.825,0 -1.619,0.123 -2.383,0.367c-0.764,0.245 -1.482,0.588 -2.154,1.031c-0.672,0.443 -1.268,0.978 -1.788,1.605c-0.519,0.626 -0.931,1.306 -1.237,2.039l-0.092,0l0,-4.4l-6.187,0Z" style="fill-rule:nonzero;"/><path d="M632.338,720.816l0,-9.212l7.884,-0c1.65,-0 2.887,0.359 3.712,1.077c0.825,0.718 1.238,1.871 1.238,3.46c-0,1.65 -0.413,2.842 -1.238,3.575c-0.825,0.733 -2.062,1.1 -3.712,1.1l-7.884,0Zm-7.196,-14.804l0,32.725l7.196,-0l0,-12.788l7.196,0c1.803,0 3.102,0.398 3.896,1.192c0.794,0.794 1.314,2.047 1.558,3.758c0.184,1.314 0.321,2.689 0.413,4.125c0.091,1.436 0.336,2.674 0.733,3.713l7.196,-0c-0.336,-0.458 -0.588,-1.016 -0.756,-1.673c-0.168,-0.657 -0.291,-1.352 -0.367,-2.085c-0.076,-0.734 -0.13,-1.452 -0.16,-2.155c-0.031,-0.702 -0.061,-1.314 -0.092,-1.833c-0.061,-0.825 -0.176,-1.65 -0.344,-2.475c-0.168,-0.825 -0.435,-1.581 -0.802,-2.269c-0.367,-0.687 -0.84,-1.283 -1.421,-1.787c-0.58,-0.504 -1.314,-0.879 -2.2,-1.123l0,-0.092c1.834,-0.733 3.155,-1.803 3.965,-3.208c0.81,-1.406 1.214,-3.071 1.214,-4.996c0,-1.253 -0.221,-2.422 -0.664,-3.506c-0.443,-1.085 -1.085,-2.04 -1.925,-2.865c-0.84,-0.825 -1.849,-1.474 -3.025,-1.948c-1.176,-0.473 -2.498,-0.71 -3.965,-0.71l-17.646,-0Z" style="fill-rule:nonzero;"/><path d="M673.497,724.345l-10.588,0c0.031,-0.458 0.13,-0.978 0.298,-1.558c0.168,-0.581 0.458,-1.131 0.871,-1.65c0.412,-0.52 0.962,-0.955 1.65,-1.306c0.687,-0.352 1.551,-0.527 2.589,-0.527c1.589,-0 2.773,0.427 3.553,1.283c0.779,0.855 1.321,2.108 1.627,3.758Zm-10.588,4.125l17.096,0c0.122,-1.833 -0.031,-3.59 -0.458,-5.271c-0.428,-1.68 -1.123,-3.177 -2.086,-4.491c-0.962,-1.314 -2.192,-2.361 -3.689,-3.14c-1.498,-0.779 -3.255,-1.169 -5.271,-1.169c-1.803,0 -3.445,0.321 -4.927,0.963c-1.482,0.642 -2.758,1.52 -3.827,2.635c-1.07,1.116 -1.895,2.437 -2.475,3.965c-0.581,1.528 -0.871,3.178 -0.871,4.95c-0,1.833 0.282,3.514 0.848,5.042c0.565,1.527 1.367,2.841 2.406,3.941c1.039,1.1 2.307,1.948 3.804,2.544c1.497,0.596 3.178,0.894 5.042,0.894c2.689,-0 4.98,-0.611 6.875,-1.834c1.894,-1.222 3.3,-3.254 4.216,-6.095l-5.729,-0c-0.214,0.733 -0.794,1.428 -1.741,2.085c-0.948,0.657 -2.078,0.985 -3.392,0.985c-1.833,0 -3.239,-0.473 -4.217,-1.42c-0.977,-0.948 -1.512,-2.475 -1.604,-4.584Z" style="fill-rule:nonzero;"/><path d="M688.897,731.037l-6.188,-0c0.061,1.589 0.42,2.91 1.077,3.964c0.657,1.055 1.497,1.903 2.521,2.544c1.024,0.642 2.192,1.1 3.506,1.375c1.314,0.275 2.659,0.413 4.034,0.413c1.344,-0 2.666,-0.13 3.964,-0.39c1.299,-0.26 2.452,-0.71 3.461,-1.352c1.008,-0.642 1.825,-1.49 2.452,-2.544c0.626,-1.054 0.939,-2.36 0.939,-3.918c0,-1.1 -0.214,-2.025 -0.641,-2.773c-0.428,-0.749 -0.993,-1.375 -1.696,-1.88c-0.703,-0.504 -1.505,-0.909 -2.406,-1.214c-0.902,-0.306 -1.826,-0.565 -2.773,-0.779c-0.917,-0.214 -1.818,-0.413 -2.705,-0.596c-0.886,-0.183 -1.672,-0.39 -2.36,-0.619c-0.687,-0.229 -1.245,-0.527 -1.673,-0.894c-0.428,-0.366 -0.642,-0.84 -0.642,-1.42c0,-0.489 0.123,-0.879 0.367,-1.169c0.245,-0.291 0.543,-0.512 0.894,-0.665c0.351,-0.153 0.741,-0.252 1.169,-0.298c0.427,-0.046 0.825,-0.068 1.191,-0.068c1.161,-0 2.17,0.221 3.025,0.664c0.856,0.443 1.329,1.291 1.421,2.544l6.188,-0c-0.123,-1.467 -0.497,-2.681 -1.123,-3.644c-0.627,-0.962 -1.413,-1.734 -2.361,-2.314c-0.947,-0.581 -2.024,-0.994 -3.231,-1.238c-1.207,-0.244 -2.452,-0.367 -3.735,-0.367c-1.284,0 -2.536,0.115 -3.759,0.344c-1.222,0.229 -2.322,0.626 -3.3,1.192c-0.977,0.565 -1.764,1.337 -2.36,2.314c-0.596,0.978 -0.894,2.231 -0.894,3.759c0,1.039 0.214,1.917 0.642,2.635c0.428,0.718 0.993,1.314 1.696,1.788c0.702,0.473 1.505,0.855 2.406,1.145c0.901,0.291 1.826,0.543 2.773,0.757c2.322,0.489 4.132,0.977 5.431,1.466c1.299,0.489 1.948,1.223 1.948,2.2c-0,0.581 -0.138,1.062 -0.413,1.444c-0.275,0.382 -0.618,0.688 -1.031,0.917c-0.412,0.229 -0.871,0.397 -1.375,0.504c-0.504,0.107 -0.985,0.16 -1.444,0.16c-0.641,0 -1.26,-0.076 -1.856,-0.229c-0.596,-0.153 -1.123,-0.389 -1.581,-0.71c-0.458,-0.321 -0.833,-0.734 -1.123,-1.238c-0.29,-0.504 -0.435,-1.107 -0.435,-1.81Z" style="fill-rule:nonzero;"/></svg>